<svg width="87" height="26" viewBox="0 0 87 26" fill="none" xmlns="http://www.w3.org/2000/svg">
<g clip-path="url(#clip0_1_667)">
<g clip-path="url(#clip1_1_667)">
<path d="M9.25 8.48466H8V7.65133C8 7.43031 7.9122 7.21835 7.75592 7.06207C7.59964 6.90579 7.38768 6.81799 7.16667 6.81799H3.83333C3.61232 6.81799 3.40036 6.90579 3.24408 7.06207C3.0878 7.21835 3 7.43031 3 7.65133V8.48466H1.75C1.41848 8.48466 1.10054 8.61635 0.866116 8.85077C0.631696 9.08519 0.5 9.40314 0.5 9.73466V16.818H10.5V9.73466C10.5 9.40314 10.3683 9.08519 10.1339 8.85077C9.89946 8.61635 9.58152 8.48466 9.25 8.48466ZM3.83333 7.65133H7.16667V8.48466H3.83333V7.65133ZM1.75 9.31799H9.25C9.36051 9.31799 9.46649 9.36189 9.54463 9.44003C9.62277 9.51817 9.66667 9.62415 9.66667 9.73466V11.818H1.33333V9.73466C1.33333 9.62415 1.37723 9.51817 1.45537 9.44003C1.53351 9.36189 1.63949 9.31799 1.75 9.31799ZM1.33333 15.9847V12.6513H5.08333V13.4847H5.91667V12.6513H9.66667V15.9847H1.33333Z" fill="#A0ABB8"/>
</g>
</g>
<defs>
<clipPath id="clip0_1_667">
<rect width="86.5" height="24.5" fill="white" transform="translate(0.5 0.817993)"/>
</clipPath>
<clipPath id="clip1_1_667">
<rect width="10" height="10" fill="white" transform="translate(0.5 6.81799)"/>
</clipPath>
</defs>
</svg>
