<svg width="87" height="26" viewBox="0 0 87 26" fill="none" xmlns="http://www.w3.org/2000/svg">
<g clip-path="url(#clip0_1_615)">
<path d="M8.75 8.48466H7.5V7.65133C7.5 7.43031 7.4122 7.21835 7.25592 7.06207C7.09964 6.90579 6.88768 6.81799 6.66667 6.81799H3.33333C3.11232 6.81799 2.90036 6.90579 2.74408 7.06207C2.5878 7.21835 2.5 7.43031 2.5 7.65133V8.48466H1.25C0.918479 8.48466 0.600537 8.61635 0.366116 8.85077C0.131696 9.08519 0 9.40314 0 9.73466V16.818H10V9.73466C10 9.40314 9.8683 9.08519 9.63388 8.85077C9.39946 8.61635 9.08152 8.48466 8.75 8.48466ZM3.33333 7.65133H6.66667V8.48466H3.33333V7.65133ZM1.25 9.31799H8.75C8.86051 9.31799 8.96649 9.36189 9.04463 9.44003C9.12277 9.51817 9.16667 9.62415 9.16667 9.73466V11.818H0.833333V9.73466C0.833333 9.62415 0.877232 9.51817 0.955372 9.44003C1.03351 9.36189 1.13949 9.31799 1.25 9.31799ZM0.833333 15.9847V12.6513H4.58333V13.4847H5.41667V12.6513H9.16667V15.9847H0.833333Z" fill="#A0ABB8"/>
</g>
<defs>
<clipPath id="clip0_1_615">
<rect width="10" height="10" fill="white" transform="translate(0 6.81799)"/>
</clipPath>
</defs>
</svg>
