<svg width="82" height="25" viewBox="0 0 82 25" fill="none" xmlns="http://www.w3.org/2000/svg">
<g clip-path="url(#clip0_1_947)">
<path d="M8.75 7.66466H7.5V6.83132C7.5 6.61031 7.4122 6.39834 7.25592 6.24206C7.09964 6.08578 6.88768 5.99799 6.66667 5.99799H3.33333C3.11232 5.99799 2.90036 6.08578 2.74408 6.24206C2.5878 6.39834 2.5 6.61031 2.5 6.83132V7.66466H1.25C0.918479 7.66466 0.600537 7.79635 0.366116 8.03077C0.131696 8.26519 0 8.58314 0 8.91466V15.998H10V8.91466C10 8.58314 9.8683 8.26519 9.63388 8.03077C9.39946 7.79635 9.08152 7.66466 8.75 7.66466ZM3.33333 6.83132H6.66667V7.66466H3.33333V6.83132ZM1.25 8.49799H8.75C8.86051 8.49799 8.96649 8.54189 9.04463 8.62003C9.12277 8.69817 9.16667 8.80415 9.16667 8.91466V10.998H0.833333V8.91466C0.833333 8.80415 0.877232 8.69817 0.955372 8.62003C1.03351 8.54189 1.13949 8.49799 1.25 8.49799ZM0.833333 15.1647V11.8313H4.58333V12.6647H5.41667V11.8313H9.16667V15.1647H0.833333Z" fill="#A0ABB8"/>
</g>
<defs>
<clipPath id="clip0_1_947">
<rect width="10" height="10" fill="white" transform="translate(0 5.99799)"/>
</clipPath>
</defs>
</svg>
