<svg width="17" height="24" viewBox="0 0 17 24" fill="none" xmlns="http://www.w3.org/2000/svg">
<path d="M4.69 18V16.6667C4.69 15.9594 4.97095 15.2811 5.47105 14.781C5.97115 14.281 6.64943 14 7.35667 14H8.69" stroke="#4F5E64" stroke-width="1.33333" stroke-linecap="round" stroke-linejoin="round"/>
<path d="M15.3567 14.6667C15.3567 17.3334 13.69 18.6667 13.0233 18.6667C12.3567 18.6667 10.69 17.3334 10.69 14.6667C11.3567 14.6667 12.3567 14.3334 13.0233 13.6667C13.69 14.3334 14.69 14.6667 15.3567 14.6667Z" stroke="#4F5E64" stroke-width="1.33333" stroke-linecap="round" stroke-linejoin="round"/>
<path d="M6.02335 8.66667C6.02335 9.37391 6.3043 10.0522 6.80439 10.5523C7.30449 11.0524 7.98277 11.3333 8.69001 11.3333C9.39726 11.3333 10.0755 11.0524 10.5756 10.5523C11.0757 10.0522 11.3567 9.37391 11.3567 8.66667C11.3567 7.95942 11.0757 7.28115 10.5756 6.78105C10.0755 6.28095 9.39726 6 8.69001 6C7.98277 6 7.30449 6.28095 6.80439 6.78105C6.3043 7.28115 6.02335 7.95942 6.02335 8.66667Z" stroke="#4F5E64" stroke-width="1.33333" stroke-linecap="round" stroke-linejoin="round"/>
</svg>
