<svg width="17" height="24" viewBox="0 0 17 24" fill="none" xmlns="http://www.w3.org/2000/svg">
<path d="M5.63333 8.66667C5.63333 9.37391 5.91428 10.0522 6.41438 10.5523C6.91448 11.0524 7.59275 11.3333 8.3 11.3333C9.00724 11.3333 9.68552 11.0524 10.1856 10.5523C10.6857 10.0522 10.9667 9.37391 10.9667 8.66667C10.9667 7.95942 10.6857 7.28115 10.1856 6.78105C9.68552 6.28095 9.00724 6 8.3 6C7.59275 6 6.91448 6.28095 6.41438 6.78105C5.91428 7.28115 5.63333 7.95942 5.63333 8.66667Z" stroke="#05264E" stroke-width="1.33333" stroke-linecap="round" stroke-linejoin="round"/>
<path d="M10.9666 16.6667H14.9666" stroke="#05264E" stroke-width="1.33333" stroke-linecap="round" stroke-linejoin="round"/>
<path d="M12.9666 14.6667V18.6667" stroke="#05264E" stroke-width="1.33333" stroke-linecap="round" stroke-linejoin="round"/>
<path d="M4.29999 18V16.6667C4.29999 15.9594 4.58094 15.2811 5.08104 14.781C5.58113 14.281 6.25941 14 6.96665 14H9.63332" stroke="#05264E" stroke-width="1.33333" stroke-linecap="round" stroke-linejoin="round"/>
</svg>
