<svg width="24" height="24" viewBox="0 0 24 24" fill="none" xmlns="http://www.w3.org/2000/svg">
<path d="M18 12C18 11.4667 17.8133 10.9867 17.44 10.56L13.12 6.32C12.9067 6.10667 12.6667 6 12.4 6C12.1333 6 11.9067 6.09333 11.72 6.28C11.5333 6.46667 11.44 6.70667 11.44 7C11.44 7.29333 11.52 7.54667 11.68 7.76L15.04 10.96H5.04C4.72 10.96 4.46667 11.0667 4.28 11.28C4.09333 11.4933 4 11.7333 4 12C4 12.2667 4.09333 12.5067 4.28 12.72C4.46667 12.9333 4.72 13.04 5.04 13.04H15.04L11.68 16.32C11.52 16.48 11.44 16.7067 11.44 17C11.44 17.2933 11.5333 17.5333 11.72 17.72C11.9067 17.9067 12.1333 18 12.4 18C12.6667 18 12.9067 17.8933 13.12 17.68L17.44 13.44C17.8133 13.0133 18 12.5333 18 12Z" fill="#121210"/>
</svg>
