<svg width="24" height="25" viewBox="0 0 24 25" fill="none" xmlns="http://www.w3.org/2000/svg">
<path d="M18 12.8882C18 12.3549 17.8133 11.8749 17.44 11.4482L13.12 7.20818C12.9067 6.99485 12.6667 6.88818 12.4 6.88818C12.1333 6.88818 11.9067 6.98152 11.72 7.16818C11.5333 7.35485 11.44 7.59485 11.44 7.88818C11.44 8.18152 11.52 8.43485 11.68 8.64818L15.04 11.8482H5.04C4.72 11.8482 4.46667 11.9549 4.28 12.1682C4.09333 12.3815 4 12.6215 4 12.8882C4 13.1549 4.09333 13.3949 4.28 13.6082C4.46667 13.8215 4.72 13.9282 5.04 13.9282H15.04L11.68 17.2082C11.52 17.3682 11.44 17.5949 11.44 17.8882C11.44 18.1815 11.5333 18.4215 11.72 18.6082C11.9067 18.7949 12.1333 18.8882 12.4 18.8882C12.6667 18.8882 12.9067 18.7815 13.12 18.5682L17.44 14.3282C17.8133 13.9015 18 13.4215 18 12.8882Z" fill="#85200C"/>
</svg>
