<svg width="24" height="24" viewBox="0 0 24 24" fill="none" xmlns="http://www.w3.org/2000/svg">
<path d="M19.04 10.9601H9.04L12.32 7.6801C12.48 7.5201 12.56 7.29343 12.56 7.0001C12.56 6.70677 12.4667 6.46677 12.28 6.2801C12.0933 6.09343 11.8667 6.0001 11.6 6.0001C11.3333 6.0001 11.0933 6.10677 10.88 6.3201L6.56 10.5601C6.18667 10.9868 6 11.4668 6 12.0001C6 12.5334 6.18667 13.0134 6.56 13.4401L10.88 17.6801C11.1467 17.9468 11.4667 18.0401 11.84 17.9601C12.2133 17.8801 12.4533 17.6534 12.56 17.2801C12.6667 16.9068 12.5867 16.5868 12.32 16.3201L9.04 12.9601H19.04C19.3067 12.9601 19.5333 12.8668 19.72 12.6801C19.9067 12.4934 20 12.2668 20 12.0001C20 11.7334 19.9067 11.4934 19.72 11.2801C19.5333 11.0668 19.3067 10.9601 19.04 10.9601Z" fill="#85200C"/>
</svg>
