<svg width="26" height="26" viewBox="0 0 26 26" fill="none" xmlns="http://www.w3.org/2000/svg">
<g clip-path="url(#clip0_1_434)">
<path d="M7.56444 10.5061C7.29168 10.1944 6.81786 10.1628 6.50613 10.4356C6.1944 10.7083 6.16282 11.1822 6.43558 11.4939L7.56444 10.5061ZM10.5 15L9.93558 15.4939C10.0723 15.6501 10.2676 15.7427 10.4751 15.7496C10.6825 15.7565 10.8836 15.6771 11.0303 15.5303L10.5 15ZM15.0303 11.5303C15.3232 11.2375 15.3232 10.7626 15.0303 10.4697C14.7375 10.1768 14.2626 10.1768 13.9697 10.4697L15.0303 11.5303ZM6.43558 11.4939L9.93558 15.4939L11.0644 14.5061L7.56444 10.5061L6.43558 11.4939ZM11.0303 15.5303L15.0303 11.5303L13.9697 10.4697L9.96968 14.4697L11.0303 15.5303Z" fill="#4F5E64"/>
</g>
<defs>
<clipPath id="clip0_1_434">
<rect width="10" height="6" fill="white" transform="translate(6 10)"/>
</clipPath>
</defs>
</svg>
