<svg width="27" height="26" viewBox="0 0 27 26" fill="none" xmlns="http://www.w3.org/2000/svg">
<g clip-path="url(#clip0_1_394)">
<path d="M8.45446 10.5061C8.18169 10.1944 7.70787 10.1628 7.39615 10.4356C7.08442 10.7083 7.05283 11.1822 7.32559 11.4939L8.45446 10.5061ZM11.39 15L10.8256 15.4939C10.9623 15.6501 11.1576 15.7427 11.3651 15.7496C11.5725 15.7565 11.7736 15.6771 11.9204 15.5303L11.39 15ZM15.9204 11.5303C16.2132 11.2375 16.2132 10.7626 15.9204 10.4697C15.6275 10.1768 15.1526 10.1768 14.8597 10.4697L15.9204 11.5303ZM7.32559 11.4939L10.8256 15.4939L11.9545 14.5061L8.45446 10.5061L7.32559 11.4939ZM11.9204 15.5303L15.9204 11.5303L14.8597 10.4697L10.8597 14.4697L11.9204 15.5303Z" fill="#4F5E64"/>
</g>
<defs>
<clipPath id="clip0_1_394">
<rect width="10" height="6" fill="white" transform="translate(6.89001 10)"/>
</clipPath>
</defs>
</svg>
