<svg width="18" height="18" viewBox="0 0 18 18" fill="none" xmlns="http://www.w3.org/2000/svg">
<g clip-path="url(#clip0_1_387)">
<path d="M8.99628 12.5073V10.6045" stroke="#FFFAFA" stroke-width="1.15909" stroke-linecap="round" stroke-linejoin="round"/>
<path fill-rule="evenodd" clip-rule="evenodd" d="M13.6423 3.9978C14.9098 3.9978 15.9298 5.0253 15.9298 6.2928V8.8728C14.0848 9.9528 11.6473 10.6053 8.99232 10.6053C6.33732 10.6053 3.90732 9.9528 2.06232 8.8728V6.2853C2.06232 5.0178 3.08982 3.9978 4.35732 3.9978H13.6423Z" stroke="#FFFAFA" stroke-width="1.15909" stroke-linecap="round" stroke-linejoin="round"/>
<path d="M11.6213 3.99426V3.71976C11.6213 2.80476 10.8788 2.06226 9.96378 2.06226H8.02878C7.11378 2.06226 6.37128 2.80476 6.37128 3.71976V3.99426" stroke="#FFFAFA" stroke-width="1.15909" stroke-linecap="round" stroke-linejoin="round"/>
<path d="M2.08087 11.6125L2.22262 13.4942C2.31862 14.7625 3.37537 15.7427 4.64662 15.7427H13.3459C14.6171 15.7427 15.6739 14.7625 15.7699 13.4942L15.9116 11.6125" stroke="#FFFAFA" stroke-width="1.15909" stroke-linecap="round" stroke-linejoin="round"/>
</g>
<defs>
<clipPath id="clip0_1_387">
<rect width="18" height="18" fill="white"/>
</clipPath>
</defs>
</svg>
