<svg width="486" height="36" viewBox="0 0 486 36" fill="none" xmlns="http://www.w3.org/2000/svg">
<path d="M0.697998 27.752V0.931999H5.378L15.422 14.576H13.19L23.018 0.931999H27.698V27.752H22.766V6.512L24.674 6.98L14.486 20.552H13.91L3.974 6.98L5.594 6.512V27.752H0.697998ZM32.4348 27.752V8.168H37.1508V27.752H32.4348ZM32.4348 5.972V0.931999H37.1508V5.972H32.4348ZM50.9371 28.184C48.9931 28.184 47.2411 27.74 45.6811 26.852C44.1451 25.94 42.9331 24.716 42.0451 23.18C41.1571 21.62 40.7131 19.868 40.7131 17.924C40.7131 15.98 41.1571 14.24 42.0451 12.704C42.9331 11.168 44.1451 9.956 45.6811 9.068C47.2411 8.18 48.9931 7.736 50.9371 7.736C52.3291 7.736 53.6251 7.988 54.8251 8.492C56.0251 8.972 57.0571 9.644 57.9211 10.508C58.8091 11.348 59.4451 12.356 59.8291 13.532L55.6891 15.332C55.3291 14.348 54.7171 13.556 53.8531 12.956C53.0131 12.356 52.0411 12.056 50.9371 12.056C49.9051 12.056 48.9811 12.308 48.1651 12.812C47.3731 13.316 46.7491 14.012 46.2931 14.9C45.8371 15.788 45.6091 16.808 45.6091 17.96C45.6091 19.112 45.8371 20.132 46.2931 21.02C46.7491 21.908 47.3731 22.604 48.1651 23.108C48.9811 23.612 49.9051 23.864 50.9371 23.864C52.0651 23.864 53.0491 23.564 53.8891 22.964C54.7291 22.364 55.3291 21.56 55.6891 20.552L59.8291 22.424C59.4451 23.528 58.8211 24.524 57.9571 25.412C57.0931 26.276 56.0611 26.96 54.8611 27.464C53.6611 27.944 52.3531 28.184 50.9371 28.184ZM63.4075 27.752V8.168H67.8355V12.524L67.4755 11.876C67.9315 10.412 68.6395 9.392 69.5995 8.816C70.5835 8.24 71.7595 7.952 73.1275 7.952H74.2795V12.128H72.5875C71.2435 12.128 70.1635 12.548 69.3475 13.388C68.5315 14.204 68.1235 15.356 68.1235 16.844V27.752H63.4075ZM86.4483 28.184C84.5283 28.184 82.7763 27.74 81.1923 26.852C79.6323 25.964 78.3843 24.752 77.4483 23.216C76.5363 21.68 76.0803 19.928 76.0803 17.96C76.0803 15.992 76.5363 14.24 77.4483 12.704C78.3843 11.168 79.6323 9.956 81.1923 9.068C82.7523 8.18 84.5043 7.736 86.4483 7.736C88.3683 7.736 90.1083 8.18 91.6683 9.068C93.2283 9.956 94.4643 11.168 95.3763 12.704C96.3123 14.216 96.7803 15.968 96.7803 17.96C96.7803 19.928 96.3123 21.68 95.3763 23.216C94.4403 24.752 93.1923 25.964 91.6323 26.852C90.0723 27.74 88.3443 28.184 86.4483 28.184ZM86.4483 23.864C87.5043 23.864 88.4283 23.612 89.2203 23.108C90.0363 22.604 90.6723 21.908 91.1283 21.02C91.6083 20.108 91.8483 19.088 91.8483 17.96C91.8483 16.808 91.6083 15.8 91.1283 14.936C90.6723 14.048 90.0363 13.352 89.2203 12.848C88.4283 12.32 87.5043 12.056 86.4483 12.056C85.3683 12.056 84.4203 12.32 83.6043 12.848C82.7883 13.352 82.1403 14.048 81.6603 14.936C81.2043 15.8 80.9763 16.808 80.9763 17.96C80.9763 19.088 81.2043 20.108 81.6603 21.02C82.1403 21.908 82.7883 22.604 83.6043 23.108C84.4203 23.612 85.3683 23.864 86.4483 23.864ZM111.903 27.752V5.252H104.955V0.931999H123.675V5.252H116.835V27.752H111.903ZM124.122 27.752V8.168H128.55V12.524L128.19 11.876C128.646 10.412 129.354 9.392 130.314 8.816C131.298 8.24 132.474 7.952 133.842 7.952H134.994V12.128H133.302C131.958 12.128 130.878 12.548 130.062 13.388C129.246 14.204 128.838 15.356 128.838 16.844V27.752H124.122ZM143.527 28.184C142.159 28.184 140.971 27.956 139.963 27.5C138.955 27.044 138.175 26.396 137.623 25.556C137.071 24.692 136.795 23.696 136.795 22.568C136.795 21.488 137.035 20.528 137.515 19.688C137.995 18.824 138.739 18.104 139.747 17.528C140.755 16.952 142.027 16.544 143.563 16.304L149.971 15.26V18.86L144.463 19.796C143.527 19.964 142.831 20.264 142.375 20.696C141.919 21.128 141.691 21.692 141.691 22.388C141.691 23.06 141.943 23.6 142.447 24.008C142.975 24.392 143.623 24.584 144.391 24.584C145.375 24.584 146.239 24.38 146.983 23.972C147.751 23.54 148.339 22.952 148.747 22.208C149.179 21.464 149.395 20.648 149.395 19.76V14.72C149.395 13.88 149.059 13.184 148.387 12.632C147.739 12.056 146.875 11.768 145.795 11.768C144.787 11.768 143.887 12.044 143.095 12.596C142.327 13.124 141.763 13.832 141.403 14.72L137.551 12.848C137.935 11.816 138.535 10.928 139.351 10.184C140.191 9.416 141.175 8.816 142.303 8.384C143.431 7.952 144.655 7.736 145.975 7.736C147.583 7.736 148.999 8.036 150.223 8.636C151.447 9.212 152.395 10.028 153.067 11.084C153.763 12.116 154.111 13.328 154.111 14.72V27.752H149.647V24.404L150.655 24.332C150.151 25.172 149.551 25.88 148.855 26.456C148.159 27.008 147.367 27.44 146.479 27.752C145.591 28.04 144.607 28.184 143.527 28.184ZM169.162 28.184C167.746 28.184 166.438 27.908 165.238 27.356C164.062 26.78 163.126 25.964 162.43 24.908L162.898 23.972V27.752H158.47V0.5H163.186V12.056L162.466 11.084C163.138 10.028 164.05 9.212 165.202 8.636C166.354 8.036 167.686 7.736 169.198 7.736C171.046 7.736 172.714 8.192 174.202 9.104C175.69 10.016 176.866 11.24 177.73 12.776C178.618 14.312 179.062 16.04 179.062 17.96C179.062 19.856 178.63 21.584 177.766 23.144C176.902 24.704 175.726 25.94 174.238 26.852C172.75 27.74 171.058 28.184 169.162 28.184ZM168.622 23.864C169.702 23.864 170.662 23.612 171.502 23.108C172.342 22.604 172.99 21.908 173.446 21.02C173.926 20.132 174.166 19.112 174.166 17.96C174.166 16.808 173.926 15.8 173.446 14.936C172.99 14.048 172.342 13.352 171.502 12.848C170.662 12.32 169.702 12.056 168.622 12.056C167.59 12.056 166.654 12.308 165.814 12.812C164.998 13.316 164.35 14.024 163.87 14.936C163.414 15.824 163.186 16.832 163.186 17.96C163.186 19.112 163.414 20.132 163.87 21.02C164.35 21.908 164.998 22.604 165.814 23.108C166.654 23.612 167.59 23.864 168.622 23.864ZM188.597 28.184C187.229 28.184 186.041 27.956 185.033 27.5C184.025 27.044 183.245 26.396 182.693 25.556C182.141 24.692 181.865 23.696 181.865 22.568C181.865 21.488 182.105 20.528 182.585 19.688C183.065 18.824 183.809 18.104 184.817 17.528C185.825 16.952 187.097 16.544 188.633 16.304L195.041 15.26V18.86L189.533 19.796C188.597 19.964 187.901 20.264 187.445 20.696C186.989 21.128 186.761 21.692 186.761 22.388C186.761 23.06 187.013 23.6 187.517 24.008C188.045 24.392 188.693 24.584 189.461 24.584C190.445 24.584 191.309 24.38 192.053 23.972C192.821 23.54 193.409 22.952 193.817 22.208C194.249 21.464 194.465 20.648 194.465 19.76V14.72C194.465 13.88 194.129 13.184 193.457 12.632C192.809 12.056 191.945 11.768 190.865 11.768C189.857 11.768 188.957 12.044 188.165 12.596C187.397 13.124 186.833 13.832 186.473 14.72L182.621 12.848C183.005 11.816 183.605 10.928 184.421 10.184C185.261 9.416 186.245 8.816 187.373 8.384C188.501 7.952 189.725 7.736 191.045 7.736C192.653 7.736 194.069 8.036 195.293 8.636C196.517 9.212 197.465 10.028 198.137 11.084C198.833 12.116 199.181 13.328 199.181 14.72V27.752H194.717V24.404L195.725 24.332C195.221 25.172 194.621 25.88 193.925 26.456C193.229 27.008 192.437 27.44 191.549 27.752C190.661 28.04 189.677 28.184 188.597 28.184ZM200.84 35.708C200.528 35.708 200.204 35.696 199.868 35.672C199.532 35.648 199.256 35.612 199.04 35.564V31.46C199.472 31.532 199.904 31.568 200.336 31.568C201.344 31.568 202.124 31.328 202.676 30.848C203.252 30.392 203.54 29.684 203.54 28.724V8.168H208.256V28.724C208.256 30.212 207.956 31.472 207.356 32.504C206.756 33.56 205.892 34.352 204.764 34.88C203.66 35.432 202.352 35.708 200.84 35.708ZM203.54 5.972V0.931999H208.256V5.972H203.54ZM222.187 28.184C220.267 28.184 218.515 27.74 216.931 26.852C215.371 25.964 214.123 24.752 213.187 23.216C212.275 21.68 211.819 19.928 211.819 17.96C211.819 15.992 212.275 14.24 213.187 12.704C214.123 11.168 215.371 9.956 216.931 9.068C218.491 8.18 220.243 7.736 222.187 7.736C224.107 7.736 225.847 8.18 227.407 9.068C228.967 9.956 230.203 11.168 231.115 12.704C232.051 14.216 232.519 15.968 232.519 17.96C232.519 19.928 232.051 21.68 231.115 23.216C230.179 24.752 228.931 25.964 227.371 26.852C225.811 27.74 224.083 28.184 222.187 28.184ZM222.187 23.864C223.243 23.864 224.167 23.612 224.959 23.108C225.775 22.604 226.411 21.908 226.867 21.02C227.347 20.108 227.587 19.088 227.587 17.96C227.587 16.808 227.347 15.8 226.867 14.936C226.411 14.048 225.775 13.352 224.959 12.848C224.167 12.32 223.243 12.056 222.187 12.056C221.107 12.056 220.159 12.32 219.343 12.848C218.527 13.352 217.879 14.048 217.399 14.936C216.943 15.8 216.715 16.808 216.715 17.96C216.715 19.088 216.943 20.108 217.399 21.02C217.879 21.908 218.527 22.604 219.343 23.108C220.159 23.612 221.107 23.864 222.187 23.864ZM242.889 27.752V0.931999H252.897C254.721 0.931999 256.329 1.268 257.721 1.94C259.137 2.588 260.241 3.548 261.033 4.82C261.825 6.068 262.221 7.592 262.221 9.392C262.221 11.168 261.813 12.692 260.997 13.964C260.205 15.212 259.113 16.172 257.721 16.844C256.329 17.516 254.721 17.852 252.897 17.852H247.785V27.752H242.889ZM247.785 13.532H252.969C253.857 13.532 254.625 13.364 255.273 13.028C255.921 12.668 256.425 12.176 256.785 11.552C257.145 10.928 257.325 10.208 257.325 9.392C257.325 8.552 257.145 7.832 256.785 7.232C256.425 6.608 255.921 6.128 255.273 5.792C254.625 5.432 253.857 5.252 252.969 5.252H247.785V13.532ZM274.422 28.184C272.406 28.184 270.642 27.728 269.13 26.816C267.618 25.904 266.442 24.668 265.602 23.108C264.762 21.548 264.342 19.82 264.342 17.924C264.342 15.956 264.762 14.216 265.602 12.704C266.466 11.168 267.63 9.956 269.094 9.068C270.582 8.18 272.238 7.736 274.062 7.736C275.598 7.736 276.942 7.988 278.094 8.492C279.27 8.996 280.266 9.692 281.082 10.58C281.898 11.468 282.522 12.488 282.954 13.64C283.386 14.768 283.602 15.992 283.602 17.312C283.602 17.648 283.578 17.996 283.53 18.356C283.506 18.716 283.446 19.028 283.35 19.292H268.23V15.692H280.686L278.454 17.384C278.67 16.28 278.61 15.296 278.274 14.432C277.962 13.568 277.434 12.884 276.69 12.38C275.97 11.876 275.094 11.624 274.062 11.624C273.078 11.624 272.202 11.876 271.434 12.38C270.666 12.86 270.078 13.58 269.67 14.54C269.286 15.476 269.142 16.616 269.238 17.96C269.142 19.16 269.298 20.228 269.706 21.164C270.138 22.076 270.762 22.784 271.578 23.288C272.418 23.792 273.378 24.044 274.458 24.044C275.538 24.044 276.45 23.816 277.194 23.36C277.962 22.904 278.562 22.292 278.994 21.524L282.81 23.396C282.426 24.332 281.826 25.16 281.01 25.88C280.194 26.6 279.222 27.164 278.094 27.572C276.99 27.98 275.766 28.184 274.422 28.184ZM287.177 27.752V8.168H291.605V12.524L291.245 11.876C291.701 10.412 292.409 9.392 293.369 8.816C294.353 8.24 295.529 7.952 296.897 7.952H298.049V12.128H296.357C295.013 12.128 293.933 12.548 293.117 13.388C292.301 14.204 291.893 15.356 291.893 16.844V27.752H287.177ZM308.094 28.184C306.006 28.184 304.182 27.692 302.622 26.708C301.086 25.7 300.03 24.344 299.454 22.64L302.982 20.948C303.486 22.052 304.182 22.916 305.07 23.54C305.982 24.164 306.99 24.476 308.094 24.476C308.958 24.476 309.642 24.284 310.146 23.9C310.65 23.516 310.902 23.012 310.902 22.388C310.902 22.004 310.794 21.692 310.578 21.452C310.386 21.188 310.11 20.972 309.75 20.804C309.414 20.612 309.042 20.456 308.634 20.336L305.43 19.436C303.774 18.956 302.514 18.224 301.65 17.24C300.81 16.256 300.39 15.092 300.39 13.748C300.39 12.548 300.69 11.504 301.29 10.616C301.914 9.704 302.766 8.996 303.846 8.492C304.95 7.988 306.21 7.736 307.626 7.736C309.474 7.736 311.106 8.18 312.522 9.068C313.938 9.956 314.946 11.204 315.546 12.812L311.946 14.504C311.61 13.616 311.046 12.908 310.254 12.38C309.462 11.852 308.574 11.588 307.59 11.588C306.798 11.588 306.174 11.768 305.718 12.128C305.262 12.488 305.034 12.956 305.034 13.532C305.034 13.892 305.13 14.204 305.322 14.468C305.514 14.732 305.778 14.948 306.114 15.116C306.474 15.284 306.882 15.44 307.338 15.584L310.47 16.52C312.078 17 313.314 17.72 314.178 18.68C315.066 19.64 315.51 20.816 315.51 22.208C315.51 23.384 315.198 24.428 314.574 25.34C313.95 26.228 313.086 26.924 311.982 27.428C310.878 27.932 309.582 28.184 308.094 28.184ZM328.71 28.184C326.79 28.184 325.038 27.74 323.454 26.852C321.894 25.964 320.646 24.752 319.71 23.216C318.798 21.68 318.342 19.928 318.342 17.96C318.342 15.992 318.798 14.24 319.71 12.704C320.646 11.168 321.894 9.956 323.454 9.068C325.014 8.18 326.766 7.736 328.71 7.736C330.63 7.736 332.37 8.18 333.93 9.068C335.49 9.956 336.726 11.168 337.638 12.704C338.574 14.216 339.042 15.968 339.042 17.96C339.042 19.928 338.574 21.68 337.638 23.216C336.702 24.752 335.454 25.964 333.894 26.852C332.334 27.74 330.606 28.184 328.71 28.184ZM328.71 23.864C329.766 23.864 330.69 23.612 331.482 23.108C332.298 22.604 332.934 21.908 333.39 21.02C333.87 20.108 334.11 19.088 334.11 17.96C334.11 16.808 333.87 15.8 333.39 14.936C332.934 14.048 332.298 13.352 331.482 12.848C330.69 12.32 329.766 12.056 328.71 12.056C327.63 12.056 326.682 12.32 325.866 12.848C325.05 13.352 324.402 14.048 323.922 14.936C323.466 15.8 323.238 16.808 323.238 17.96C323.238 19.088 323.466 20.108 323.922 21.02C324.402 21.908 325.05 22.604 325.866 23.108C326.682 23.612 327.63 23.864 328.71 23.864ZM342.618 27.752V8.168H347.046V12.02L346.686 11.336C347.142 10.16 347.886 9.272 348.918 8.672C349.974 8.048 351.198 7.736 352.59 7.736C354.03 7.736 355.302 8.048 356.406 8.672C357.534 9.296 358.41 10.172 359.034 11.3C359.658 12.404 359.97 13.688 359.97 15.152V27.752H355.254V16.268C355.254 15.404 355.086 14.66 354.75 14.036C354.414 13.412 353.946 12.932 353.346 12.596C352.77 12.236 352.086 12.056 351.294 12.056C350.526 12.056 349.842 12.236 349.242 12.596C348.642 12.932 348.174 13.412 347.838 14.036C347.502 14.66 347.334 15.404 347.334 16.268V27.752H342.618ZM369.898 28.184C368.53 28.184 367.342 27.956 366.334 27.5C365.326 27.044 364.546 26.396 363.994 25.556C363.442 24.692 363.166 23.696 363.166 22.568C363.166 21.488 363.406 20.528 363.886 19.688C364.366 18.824 365.11 18.104 366.118 17.528C367.126 16.952 368.398 16.544 369.934 16.304L376.342 15.26V18.86L370.834 19.796C369.898 19.964 369.202 20.264 368.746 20.696C368.29 21.128 368.062 21.692 368.062 22.388C368.062 23.06 368.314 23.6 368.818 24.008C369.346 24.392 369.994 24.584 370.762 24.584C371.746 24.584 372.61 24.38 373.354 23.972C374.122 23.54 374.71 22.952 375.118 22.208C375.55 21.464 375.766 20.648 375.766 19.76V14.72C375.766 13.88 375.43 13.184 374.758 12.632C374.11 12.056 373.246 11.768 372.166 11.768C371.158 11.768 370.258 12.044 369.466 12.596C368.698 13.124 368.134 13.832 367.774 14.72L363.922 12.848C364.306 11.816 364.906 10.928 365.722 10.184C366.562 9.416 367.546 8.816 368.674 8.384C369.802 7.952 371.026 7.736 372.346 7.736C373.954 7.736 375.37 8.036 376.594 8.636C377.818 9.212 378.766 10.028 379.438 11.084C380.134 12.116 380.482 13.328 380.482 14.72V27.752H376.018V24.404L377.026 24.332C376.522 25.172 375.922 25.88 375.226 26.456C374.53 27.008 373.738 27.44 372.85 27.752C371.962 28.04 370.978 28.184 369.898 28.184ZM384.841 27.752V0.5H389.557V27.752H384.841ZM393.911 27.752V8.168H398.627V27.752H393.911ZM393.911 5.972V0.931999H398.627V5.972H393.911ZM401.29 27.752V23.936L412.666 10.76L413.386 12.38H401.794V8.168H417.562V12.02L406.402 25.196L405.682 23.576H417.634V27.752H401.29ZM426.254 28.184C424.886 28.184 423.698 27.956 422.69 27.5C421.682 27.044 420.902 26.396 420.35 25.556C419.798 24.692 419.522 23.696 419.522 22.568C419.522 21.488 419.762 20.528 420.242 19.688C420.722 18.824 421.466 18.104 422.474 17.528C423.482 16.952 424.754 16.544 426.29 16.304L432.698 15.26V18.86L427.19 19.796C426.254 19.964 425.558 20.264 425.102 20.696C424.646 21.128 424.418 21.692 424.418 22.388C424.418 23.06 424.67 23.6 425.174 24.008C425.702 24.392 426.35 24.584 427.118 24.584C428.102 24.584 428.966 24.38 429.71 23.972C430.478 23.54 431.066 22.952 431.474 22.208C431.906 21.464 432.122 20.648 432.122 19.76V14.72C432.122 13.88 431.786 13.184 431.114 12.632C430.466 12.056 429.602 11.768 428.522 11.768C427.514 11.768 426.614 12.044 425.822 12.596C425.054 13.124 424.49 13.832 424.13 14.72L420.278 12.848C420.662 11.816 421.262 10.928 422.078 10.184C422.918 9.416 423.902 8.816 425.03 8.384C426.158 7.952 427.382 7.736 428.702 7.736C430.31 7.736 431.726 8.036 432.95 8.636C434.174 9.212 435.122 10.028 435.794 11.084C436.49 12.116 436.838 13.328 436.838 14.72V27.752H432.374V24.404L433.382 24.332C432.878 25.172 432.278 25.88 431.582 26.456C430.886 27.008 430.094 27.44 429.206 27.752C428.318 28.04 427.334 28.184 426.254 28.184ZM450.305 28.184C448.409 28.184 446.717 27.74 445.229 26.852C443.741 25.94 442.565 24.704 441.701 23.144C440.837 21.584 440.405 19.856 440.405 17.96C440.405 16.04 440.837 14.312 441.701 12.776C442.565 11.24 443.741 10.016 445.229 9.104C446.741 8.192 448.421 7.736 450.269 7.736C451.757 7.736 453.077 8.036 454.229 8.636C455.405 9.212 456.329 10.028 457.001 11.084L456.281 12.056V0.5H460.997V27.752H456.533V23.972L457.037 24.908C456.365 25.964 455.429 26.78 454.229 27.356C453.029 27.908 451.721 28.184 450.305 28.184ZM450.809 23.864C451.889 23.864 452.837 23.612 453.653 23.108C454.469 22.604 455.105 21.908 455.561 21.02C456.041 20.132 456.281 19.112 456.281 17.96C456.281 16.832 456.041 15.824 455.561 14.936C455.105 14.024 454.469 13.316 453.653 12.812C452.837 12.308 451.889 12.056 450.809 12.056C449.753 12.056 448.805 12.32 447.965 12.848C447.125 13.352 446.465 14.048 445.985 14.936C445.529 15.8 445.301 16.808 445.301 17.96C445.301 19.112 445.529 20.132 445.985 21.02C446.465 21.908 447.125 22.604 447.965 23.108C448.805 23.612 449.753 23.864 450.809 23.864ZM474.96 28.184C473.04 28.184 471.288 27.74 469.704 26.852C468.144 25.964 466.896 24.752 465.96 23.216C465.048 21.68 464.592 19.928 464.592 17.96C464.592 15.992 465.048 14.24 465.96 12.704C466.896 11.168 468.144 9.956 469.704 9.068C471.264 8.18 473.016 7.736 474.96 7.736C476.88 7.736 478.62 8.18 480.18 9.068C481.74 9.956 482.976 11.168 483.888 12.704C484.824 14.216 485.292 15.968 485.292 17.96C485.292 19.928 484.824 21.68 483.888 23.216C482.952 24.752 481.704 25.964 480.144 26.852C478.584 27.74 476.856 28.184 474.96 28.184ZM474.96 23.864C476.016 23.864 476.94 23.612 477.732 23.108C478.548 22.604 479.184 21.908 479.64 21.02C480.12 20.108 480.36 19.088 480.36 17.96C480.36 16.808 480.12 15.8 479.64 14.936C479.184 14.048 478.548 13.352 477.732 12.848C476.94 12.32 476.016 12.056 474.96 12.056C473.88 12.056 472.932 12.32 472.116 12.848C471.3 13.352 470.652 14.048 470.172 14.936C469.716 15.8 469.488 16.808 469.488 17.96C469.488 19.088 469.716 20.108 470.172 21.02C470.652 21.908 471.3 22.604 472.116 23.108C472.932 23.612 473.88 23.864 474.96 23.864Z" fill="#F8FF00"/>
</svg>
